<?xml version="1.0" encoding="UTF-8" standalone="no"?>
<!DOCTYPE svg PUBLIC "-//W3C//DTD SVG 1.1//EN"
 "http://www.w3.org/Graphics/SVG/1.1/DTD/svg11.dtd">
<!-- Generated by graphviz version 2.47.0 (20210316.0004)
 -->
<!-- Title: dependencies Pages: 1 -->
<svg width="1058pt" height="211pt"
 viewBox="0.00 0.00 1058.00 211.00" xmlns="http://www.w3.org/2000/svg" xmlns:xlink="http://www.w3.org/1999/xlink">
<g id="graph0" class="graph" transform="scale(1 1) rotate(0) translate(4 207)">
<title>dependencies</title>
<polygon fill="white" stroke="transparent" points="-4,4 -4,-207 1054,-207 1054,4 -4,4"/>
<text text-anchor="start" x="504.01" y="-42.4" font-family="Times-12" font-weight="bold" font-size="14.00">Legend</text>
<polygon fill="#ffffb3" stroke="transparent" points="291,-10 291,-30 311,-30 311,-10 291,-10"/>
<text text-anchor="start" x="314.63" y="-15.4" font-family="Times-12" font-size="14.00"> &#160;Declarations</text>
<polygon fill="#8dd3c7" stroke="transparent" points="404,-10 404,-30 424,-30 424,-10 404,-10"/>
<text text-anchor="start" x="427.73" y="-15.4" font-family="Times-12" font-size="14.00"> &#160;Module</text>
<polygon fill="#80b1d3" stroke="transparent" points="490,-10 490,-30 510,-30 510,-10 490,-10"/>
<text text-anchor="start" x="513.78" y="-15.4" font-family="Times-12" font-size="14.00"> &#160;Bootstrap</text>
<polygon fill="#fdb462" stroke="transparent" points="587,-10 587,-30 607,-30 607,-10 587,-10"/>
<text text-anchor="start" x="610.67" y="-15.4" font-family="Times-12" font-size="14.00"> &#160;Providers</text>
<polygon fill="#fb8072" stroke="transparent" points="683,-10 683,-30 703,-30 703,-10 683,-10"/>
<text text-anchor="start" x="706.73" y="-15.4" font-family="Times-12" font-size="14.00"> &#160;Exports</text>
<g id="clust1" class="cluster">
<title>cluster_AppModule</title>
<polygon fill="none" stroke="black" stroke-dasharray="1,5" points="8,-70 8,-195 1042,-195 1042,-70 8,-70"/>
</g>
<g id="clust3" class="cluster">
<title>cluster_AppModule_imports</title>
<polygon fill="none" stroke="black" points="204,-78 204,-130 1034,-130 1034,-78 204,-78"/>
</g>
<g id="clust6" class="cluster">
<title>cluster_AppModule_providers</title>
<polygon fill="none" stroke="black" points="16,-78 16,-130 196,-130 196,-78 16,-78"/>
</g>
<!-- AccessModule -->
<g id="node1" class="node">
<title>AccessModule</title>
<polygon fill="#8dd3c7" stroke="black" points="1025.69,-122 1022.69,-126 1001.69,-126 998.69,-122 926.31,-122 926.31,-86 1025.69,-86 1025.69,-122"/>
<text text-anchor="middle" x="976" y="-99.8" font-family="Times,serif" font-size="14.00">AccessModule</text>
</g>
<!-- AppModule -->
<g id="node8" class="node">
<title>AppModule</title>
<polygon fill="#8dd3c7" stroke="black" points="611.66,-187 608.66,-191 587.66,-191 584.66,-187 528.34,-187 528.34,-151 611.66,-151 611.66,-187"/>
<text text-anchor="middle" x="570" y="-164.8" font-family="Times,serif" font-size="14.00">AppModule</text>
</g>
<!-- AccessModule&#45;&gt;AppModule -->
<g id="edge1" class="edge">
<title>AccessModule&#45;&gt;AppModule</title>
<path fill="none" stroke="black" d="M976,-122.29C976,-144.21 976,-178 976,-178 976,-178 621.92,-178 621.92,-178"/>
<polygon fill="black" stroke="black" points="621.92,-174.5 611.92,-178 621.92,-181.5 621.92,-174.5"/>
</g>
<!-- AuthModule -->
<g id="node2" class="node">
<title>AuthModule</title>
<polygon fill="#8dd3c7" stroke="black" points="908.55,-122 905.55,-126 884.55,-126 881.55,-122 821.45,-122 821.45,-86 908.55,-86 908.55,-122"/>
<text text-anchor="middle" x="865" y="-99.8" font-family="Times,serif" font-size="14.00">AuthModule</text>
</g>
<!-- AuthModule&#45;&gt;AppModule -->
<g id="edge2" class="edge">
<title>AuthModule&#45;&gt;AppModule</title>
<path fill="none" stroke="black" d="M865,-122.11C865,-141.34 865,-169 865,-169 865,-169 621.95,-169 621.95,-169"/>
<polygon fill="black" stroke="black" points="621.95,-165.5 611.95,-169 621.95,-172.5 621.95,-165.5"/>
</g>
<!-- CategoryModule -->
<g id="node3" class="node">
<title>CategoryModule</title>
<polygon fill="#8dd3c7" stroke="black" points="803.37,-122 800.37,-126 779.37,-126 776.37,-122 692.63,-122 692.63,-86 803.37,-86 803.37,-122"/>
<text text-anchor="middle" x="748" y="-99.8" font-family="Times,serif" font-size="14.00">CategoryModule</text>
</g>
<!-- CategoryModule&#45;&gt;AppModule -->
<g id="edge3" class="edge">
<title>CategoryModule&#45;&gt;AppModule</title>
<path fill="none" stroke="black" d="M748,-122.03C748,-138.4 748,-160 748,-160 748,-160 621.73,-160 621.73,-160"/>
<polygon fill="black" stroke="black" points="621.73,-156.5 611.73,-160 621.73,-163.5 621.73,-156.5"/>
</g>
<!-- GeosModule -->
<g id="node4" class="node">
<title>GeosModule</title>
<polygon fill="#8dd3c7" stroke="black" points="674.32,-122 671.32,-126 650.32,-126 647.32,-122 585.68,-122 585.68,-86 674.32,-86 674.32,-122"/>
<text text-anchor="middle" x="630" y="-99.8" font-family="Times,serif" font-size="14.00">GeosModule</text>
</g>
<!-- GeosModule&#45;&gt;AppModule -->
<g id="edge4" class="edge">
<title>GeosModule&#45;&gt;AppModule</title>
<path fill="none" stroke="black" d="M598.84,-122.11C598.84,-122.11 598.84,-140.99 598.84,-140.99"/>
<polygon fill="black" stroke="black" points="595.34,-140.99 598.84,-150.99 602.34,-140.99 595.34,-140.99"/>
</g>
<!-- InventoryModule -->
<g id="node5" class="node">
<title>InventoryModule</title>
<polygon fill="#8dd3c7" stroke="black" points="567.98,-122 564.98,-126 543.98,-126 540.98,-122 454.02,-122 454.02,-86 567.98,-86 567.98,-122"/>
<text text-anchor="middle" x="511" y="-99.8" font-family="Times,serif" font-size="14.00">InventoryModule</text>
</g>
<!-- InventoryModule&#45;&gt;AppModule -->
<g id="edge5" class="edge">
<title>InventoryModule&#45;&gt;AppModule</title>
<path fill="none" stroke="black" d="M548.08,-122.11C548.08,-122.11 548.08,-140.99 548.08,-140.99"/>
<polygon fill="black" stroke="black" points="544.58,-140.99 548.08,-150.99 551.58,-140.99 544.58,-140.99"/>
</g>
<!-- MessengerModule -->
<g id="node6" class="node">
<title>MessengerModule</title>
<polygon fill="#8dd3c7" stroke="black" points="436.19,-122 433.19,-126 412.19,-126 409.19,-122 315.81,-122 315.81,-86 436.19,-86 436.19,-122"/>
<text text-anchor="middle" x="376" y="-99.8" font-family="Times,serif" font-size="14.00">MessengerModule</text>
</g>
<!-- MessengerModule&#45;&gt;AppModule -->
<g id="edge6" class="edge">
<title>MessengerModule&#45;&gt;AppModule</title>
<path fill="none" stroke="black" d="M376,-122.03C376,-138.4 376,-160 376,-160 376,-160 517.9,-160 517.9,-160"/>
<polygon fill="black" stroke="black" points="517.9,-163.5 527.9,-160 517.9,-156.5 517.9,-163.5"/>
</g>
<!-- UserModule -->
<g id="node7" class="node">
<title>UserModule</title>
<polygon fill="#8dd3c7" stroke="black" points="297.98,-122 294.98,-126 273.98,-126 270.98,-122 212.02,-122 212.02,-86 297.98,-86 297.98,-122"/>
<text text-anchor="middle" x="255" y="-99.8" font-family="Times,serif" font-size="14.00">UserModule</text>
</g>
<!-- UserModule&#45;&gt;AppModule -->
<g id="edge7" class="edge">
<title>UserModule&#45;&gt;AppModule</title>
<path fill="none" stroke="black" d="M255,-122.11C255,-141.34 255,-169 255,-169 255,-169 518.17,-169 518.17,-169"/>
<polygon fill="black" stroke="black" points="518.17,-172.5 528.17,-169 518.17,-165.5 518.17,-172.5"/>
</g>
<!-- MessengerService -->
<g id="node9" class="node">
<title>MessengerService</title>
<ellipse fill="#fdb462" stroke="black" cx="106" cy="-104" rx="81.64" ry="18"/>
<text text-anchor="middle" x="106" y="-99.8" font-family="Times,serif" font-size="14.00">MessengerService</text>
</g>
<!-- MessengerService&#45;&gt;AppModule -->
<g id="edge8" class="edge">
<title>MessengerService&#45;&gt;AppModule</title>
<path fill="none" stroke="black" d="M106,-122.29C106,-144.21 106,-178 106,-178 106,-178 518,-178 518,-178"/>
<polygon fill="black" stroke="black" points="518,-181.5 528,-178 518,-174.5 518,-181.5"/>
</g>
</g>
</svg>
